<?xml version="1.0" encoding="UTF-8" standalone="no"?>
<!DOCTYPE svg PUBLIC "-//W3C//DTD SVG 1.1//EN" "http://www.w3.org/Graphics/SVG/1.1/DTD/svg11.dtd">
<svg width="100%" height="100%" viewBox="0 0 659 296" version="1.1" xmlns="http://www.w3.org/2000/svg" xmlns:xlink="http://www.w3.org/1999/xlink" xml:space="preserve" style="fill-rule:evenodd;clip-rule:evenodd;stroke-linejoin:round;stroke-miterlimit:1.41421;">
    <rect id="StaplesEN" x="0" y="0" width="658.333" height="295.833" style="fill:none;"/>
    <clipPath id="_clip1">
        <rect id="StaplesEN1" x="0" y="0" width="658.333" height="295.833"/>
    </clipPath>
    <g clip-path="url(#_clip1)">
        <g transform="matrix(4.16667,0,0,4.16667,0,-35.6416)">
            <path d="M14.474,55.331L14.474,56.163L12.931,56.163L12.931,67.012L14.474,67.012L14.474,67.844L10.469,67.844L10.469,67.012L11.995,67.012L11.995,57.133L11.96,57.133L7.523,67.325L6.933,67.325L2.496,57.133L2.461,57.133L2.461,67.012L3.9,67.012L3.9,67.844L0,67.844L0,67.012L1.525,67.012L1.525,56.163L0,56.163L0,55.331L2.634,55.331L7.21,66.024L7.246,66.024L11.839,55.331L14.474,55.331Z" style="fill:rgb(35,31,32);fill-rule:nonzero;"/>
            <path d="M16.238,63.754C16.238,65.713 17.486,67.239 19.48,67.239C21.23,67.239 22.721,65.92 22.721,63.754C22.721,62.073 21.473,60.583 19.48,60.583C17.607,60.583 16.238,62.126 16.238,63.754ZM23.623,67.065L24.957,67.065L24.957,67.844L22.755,67.844L22.755,66.457C21.733,67.602 20.398,68.018 19.48,68.018C17.347,68.018 15.372,66.475 15.372,63.79C15.372,61.899 17.052,59.801 19.48,59.801C20.693,59.801 21.941,60.356 22.721,61.397L22.755,61.397L22.755,59.975L24.957,59.975L24.957,60.754L23.623,60.754L23.623,67.065Z" style="fill:rgb(35,31,32);fill-rule:nonzero;"/>
            <path d="M25.925,67.844L25.925,67.065L27.346,67.065L27.346,56.11L25.925,56.11L25.925,55.331L28.213,55.331L28.213,63.389L31.229,60.754L29.981,60.754L29.981,59.975L33.777,59.975L33.777,60.754L32.425,60.754L29.115,63.528L33.154,67.065L34.28,67.065L34.28,67.844L30.64,67.844L30.64,67.065L31.853,67.065L28.213,63.79L28.213,67.065L29.6,67.065L29.6,67.844L25.925,67.844Z" style="fill:rgb(35,31,32);fill-rule:nonzero;"/>
            <path d="M42.425,63.477C42.234,61.743 40.657,60.583 38.941,60.583C37.294,60.583 35.769,61.848 35.578,63.477L42.425,63.477ZM35.578,64.256C35.716,66.112 37.173,67.239 38.976,67.239C40.154,67.239 41.316,66.631 41.974,65.643L42.945,65.643C42.234,67.204 40.536,68.018 38.872,68.018C36.601,68.018 34.711,66.354 34.711,64.032C34.711,61.571 36.635,59.801 39.062,59.801C41.663,59.801 43.292,61.674 43.292,64.256L35.578,64.256Z" style="fill:rgb(35,31,32);fill-rule:nonzero;"/>
            <path d="M63.101,55.331L63.101,56.163L61.558,56.163L61.558,67.012L63.101,67.012L63.101,67.844L59.097,67.844L59.097,67.012L60.623,67.012L60.623,57.133L60.587,57.133L56.15,67.325L55.561,67.325L51.124,57.133L51.088,57.133L51.088,67.012L52.527,67.012L52.527,67.844L48.627,67.844L48.627,67.012L50.153,67.012L50.153,56.163L48.627,56.163L48.627,55.331L51.262,55.331L55.838,66.024L55.873,66.024L60.466,55.331L63.101,55.331Z" style="fill:rgb(35,31,32);fill-rule:nonzero;"/>
            <path d="M68.384,67.239C70.361,67.239 71.816,65.903 71.816,63.911C71.816,61.917 70.361,60.583 68.384,60.583C66.408,60.583 64.953,61.917 64.953,63.911C64.953,65.903 66.408,67.239 68.384,67.239ZM68.384,59.801C70.932,59.801 72.683,61.639 72.683,63.911C72.683,66.18 70.932,68.018 68.384,68.018C65.836,68.018 64.085,66.18 64.085,63.911C64.085,61.639 65.836,59.801 68.384,59.801Z" style="fill:rgb(35,31,32);fill-rule:nonzero;"/>
            <path d="M76.13,60.911L76.165,60.911C76.511,60.288 77.257,59.801 78.106,59.801C79.181,59.801 79.805,60.495 79.805,61.501L78.938,61.501C78.938,60.946 78.73,60.583 77.916,60.583C76.65,60.583 76.148,62.176 76.148,63.286L76.148,67.065L77.551,67.065L77.551,67.844L73.842,67.844L73.842,67.065L75.281,67.065L75.281,60.754L73.859,60.754L73.859,59.975L76.13,59.975L76.13,60.911Z" style="fill:rgb(35,31,32);fill-rule:nonzero;"/>
            <path d="M88.175,63.477C87.985,61.743 86.408,60.583 84.692,60.583C83.044,60.583 81.519,61.848 81.329,63.477L88.175,63.477ZM81.329,64.256C81.467,66.112 82.923,67.239 84.726,67.239C85.905,67.239 87.066,66.631 87.725,65.643L88.696,65.643C87.985,67.204 86.286,68.018 84.622,68.018C82.351,68.018 80.462,66.354 80.462,64.032C80.462,61.571 82.386,59.801 84.813,59.801C87.413,59.801 89.043,61.674 89.043,64.256L81.329,64.256Z" style="fill:rgb(35,31,32);fill-rule:nonzero;"/>
            <path d="M96.822,61.692L96.822,67.012L98.313,67.012L98.313,67.844L94.395,67.844L94.395,67.012L95.885,67.012L95.885,56.163L94.395,56.163L94.395,55.331L98.313,55.331L98.313,56.163L96.822,56.163L96.822,60.86L103.513,60.86L103.513,56.163L102.022,56.163L102.022,55.331L105.94,55.331L105.94,56.163L104.449,56.163L104.449,67.012L105.94,67.012L105.94,67.844L102.022,67.844L102.022,67.012L103.513,67.012L103.513,61.692L96.822,61.692Z" style="fill:rgb(35,31,32);fill-rule:nonzero;"/>
            <path d="M107.722,63.754C107.722,65.713 108.97,67.239 110.964,67.239C112.714,67.239 114.205,65.92 114.205,63.754C114.205,62.073 112.957,60.583 110.964,60.583C109.091,60.583 107.722,62.126 107.722,63.754ZM115.106,67.065L116.44,67.065L116.44,67.844L114.239,67.844L114.239,66.457C113.217,67.602 111.882,68.018 110.964,68.018C108.831,68.018 106.855,66.475 106.855,63.79C106.855,61.899 108.536,59.801 110.964,59.801C112.177,59.801 113.425,60.356 114.205,61.397L114.239,61.397L114.239,59.975L116.44,59.975L116.44,60.754L115.106,60.754L115.106,67.065Z" style="fill:rgb(35,31,32);fill-rule:nonzero;"/>
            <path d="M122.817,60.583C120.929,60.583 119.542,61.952 119.542,63.911C119.542,65.87 120.929,67.239 122.817,67.239C124.707,67.239 126.094,65.87 126.094,63.911C126.094,61.952 124.707,60.583 122.817,60.583ZM118.744,60.754L117.323,60.754L117.323,59.975L119.61,59.975L119.61,61.415L119.646,61.415C120.165,60.651 121.24,59.801 122.766,59.801C125.313,59.801 126.96,61.657 126.96,63.911C126.96,66.163 125.313,68.018 122.766,68.018C121.379,68.018 120.2,67.151 119.646,66.407L119.61,66.407L119.61,70.219L121.032,70.219L121.032,71L117.323,71L117.323,70.219L118.744,70.219L118.744,60.754Z" style="fill:rgb(35,31,32);fill-rule:nonzero;"/>
            <path d="M133.406,60.583C131.517,60.583 130.13,61.952 130.13,63.911C130.13,65.87 131.517,67.239 133.406,67.239C135.296,67.239 136.683,65.87 136.683,63.911C136.683,61.952 135.296,60.583 133.406,60.583ZM129.332,60.754L127.911,60.754L127.911,59.975L130.2,59.975L130.2,61.415L130.233,61.415C130.755,60.651 131.829,59.801 133.354,59.801C135.902,59.801 137.55,61.657 137.55,63.911C137.55,66.163 135.902,68.018 133.354,68.018C131.968,68.018 130.789,67.151 130.233,66.407L130.2,66.407L130.2,70.219L131.621,70.219L131.621,71L127.911,71L127.911,70.219L129.332,70.219L129.332,60.754Z" style="fill:rgb(35,31,32);fill-rule:nonzero;"/>
            <path d="M146.422,63.477C146.231,61.743 144.654,60.583 142.938,60.583C141.291,60.583 139.766,61.848 139.575,63.477L146.422,63.477ZM139.575,64.256C139.714,66.112 141.17,67.239 142.973,67.239C144.151,67.239 145.313,66.631 145.972,65.643L146.942,65.643C146.231,67.204 144.532,68.018 142.868,68.018C140.598,68.018 138.708,66.354 138.708,64.032C138.708,61.571 140.633,59.801 143.06,59.801C145.659,59.801 147.289,61.674 147.289,64.256L139.575,64.256Z" style="fill:rgb(35,31,32);fill-rule:nonzero;"/>
            <path d="M150.581,61.483L150.615,61.483C151.413,60.391 152.608,59.801 153.684,59.801C156.162,59.801 156.457,61.12 156.457,62.94L156.457,67.065L157.826,67.065L157.826,67.844L154.221,67.844L154.221,67.065L155.591,67.065L155.591,62.87C155.591,61.12 155.036,60.583 153.684,60.583C152.314,60.583 151.015,61.571 150.581,62.506L150.581,67.065L151.915,67.065L151.915,67.844L148.31,67.844L148.31,67.065L149.714,67.065L149.714,60.754L148.31,60.754L148.31,59.975L150.581,59.975L150.581,61.483Z" style="fill:rgb(35,31,32);fill-rule:nonzero;"/>
        </g>
        <g transform="matrix(1.66375,0,0,1.66375,-115.343,-69.7752)">
            <g transform="matrix(2.66667,0,0,2.66667,0,0)">
                <path d="M37.453,53.316L37.445,53.318C27.329,53.313 26.235,46.738 26.232,43.91L31.578,43.915C31.611,45.254 32.21,48.371 37.044,48.371C38.591,48.373 39.821,48.139 40.714,47.678C41.856,47.089 42.435,46.124 42.435,44.811C42.432,42.737 40.664,42.139 37.752,41.403L34.956,40.702C30.673,39.632 26.63,38.622 26.628,32.427C26.628,31.213 26.866,28.882 28.478,26.922C30.195,24.831 32.964,23.767 36.702,23.769C40.278,23.769 43.008,24.864 44.823,27.024C46.703,29.255 46.93,31.849 46.942,32.861L41.597,32.864C41.462,31.728 41.105,28.71 36.311,28.71C35.137,28.712 34.068,28.968 33.292,29.429C32.321,30.007 31.83,30.873 31.831,32.002C31.832,34.185 33.533,34.61 34.549,34.864L40.905,36.543C44.475,37.478 47.78,39.045 47.782,44.11C47.784,47.722 46.336,50.338 43.479,51.885C41.101,53.176 38.472,53.315 37.453,53.316" style="fill:rgb(255,8,0);fill-rule:nonzero;"/>
            </g>
            <g transform="matrix(2.66667,0,0,2.66667,0,0)">
                <path d="M60.868,52.584L55.303,52.584L55.305,29.575L47.41,29.572L47.41,24.51L68.741,24.517L68.742,29.573L60.869,29.573L60.868,52.584Z" style="fill:rgb(255,8,0);fill-rule:nonzero;"/>
            </g>
            <g transform="matrix(2.66667,0,0,2.66667,0,0)">
                <path d="M150.178,52.582L130.27,52.582L130.261,24.511L149.554,24.511L149.557,29.597L135.718,29.596L135.721,35.364L148.435,35.363L148.435,40.426L135.72,40.426L135.724,47.505L150.179,47.505L150.178,52.582Z" style="fill:rgb(255,8,0);fill-rule:nonzero;"/>
            </g>
            <g transform="matrix(2.66667,0,0,2.66667,0,0)">
                <path d="M82.304,52.582L80.633,46.828L71.09,46.83L69.276,52.582L63.414,52.582L72.742,24.517L79.113,24.52L88.351,52.582L82.304,52.582ZM72.578,41.882L79.07,41.883L75.874,30.964L72.578,41.882Z" style="fill:rgb(255,8,0);fill-rule:nonzero;"/>
            </g>
            <g transform="matrix(2.66667,0,0,2.66667,0,0)">
                <path d="M95.124,52.582L89.559,52.582L89.548,24.523L101.523,24.527C106.556,24.527 109.682,27.981 109.683,33.541C109.683,34.989 109.281,37.176 108.147,38.979C106.67,41.324 104.371,42.515 101.31,42.514L95.119,42.515L95.124,52.582ZM95.119,37.567L100.11,37.571C104.119,37.568 104.12,34.557 104.121,33.272C104.118,30.571 102.745,29.471 99.381,29.47L95.116,29.469L95.119,37.567Z" style="fill:rgb(255,8,0);fill-rule:nonzero;"/>
            </g>
            <g transform="matrix(2.66667,0,0,2.66667,0,0)">
                <path d="M171.62,24.88L172.444,24.881C172.952,24.88 173.192,25.079 173.191,25.49C173.192,25.876 172.946,26.039 172.629,26.071L173.241,27.014L172.883,27.013L172.302,26.097L171.951,26.094L171.951,27.014L171.62,27.013L171.62,24.88ZM171.951,25.829L172.297,25.828C172.59,25.825 172.859,25.813 172.858,25.476C172.859,25.192 172.616,25.148 172.389,25.149L171.95,25.149L171.951,25.829Z" style="fill:rgb(255,8,0);fill-rule:nonzero;"/>
            </g>
            <g transform="matrix(2.66667,0,0,2.66667,0,0)">
                <path d="M110.9,49.461L110.897,28.932C110.895,26.075 113.295,23.759 116.254,23.76C119.076,23.764 121.273,25.711 121.661,28.441L123.441,37.592L118.348,38.583L116.462,28.899C116.462,28.899 116.449,28.78 116.331,28.788L116.242,28.919L116.255,47.502L129.074,47.5L129.073,52.583L113.711,52.581C112.132,52.581 110.901,50.98 110.9,49.461" style="fill:rgb(255,8,0);fill-rule:nonzero;"/>
            </g>
            <g transform="matrix(2.66667,0,0,2.66667,0,0)">
                <path d="M174.164,25.948C174.164,26.962 173.342,27.784 172.328,27.784C171.315,27.784 170.493,26.962 170.493,25.948C170.493,24.934 171.315,24.112 172.328,24.112C173.342,24.112 174.164,24.934 174.164,25.948M172.327,24.404C171.474,24.404 170.783,25.095 170.783,25.948C170.783,26.801 171.474,27.492 172.327,27.492C173.18,27.492 173.871,26.801 173.871,25.948C173.871,25.095 173.18,24.404 172.327,24.404" style="fill:rgb(255,8,0);fill-rule:nonzero;"/>
            </g>
            <g transform="matrix(2.66667,0,0,2.66667,0,0)">
                <path d="M162.341,53.316L162.333,53.318C152.216,53.313 151.123,46.738 151.12,43.91L156.466,43.915C156.499,45.254 157.098,48.371 161.931,48.371C163.479,48.373 164.709,48.139 165.602,47.678C166.744,47.089 167.323,46.124 167.323,44.811C167.32,42.737 165.552,42.139 162.64,41.403L159.844,40.702C155.56,39.632 151.518,38.622 151.516,32.427C151.516,31.213 151.754,28.882 153.366,26.922C155.083,24.831 157.852,23.767 161.59,23.769C165.166,23.769 167.896,24.864 169.711,27.024C171.591,29.255 171.818,31.849 171.83,32.861L166.484,32.864C166.35,31.728 165.993,28.71 161.199,28.71C160.025,28.712 158.956,28.968 158.18,29.429C157.209,30.007 156.718,30.873 156.719,32.002C156.72,34.185 158.421,34.61 159.437,34.864L165.793,36.543C169.363,37.478 172.668,39.045 172.67,44.11C172.672,47.722 171.224,50.338 168.367,51.885C165.989,53.176 163.36,53.315 162.341,53.316" style="fill:rgb(255,8,0);fill-rule:nonzero;"/>
            </g>
        </g>
    </g>
</svg>
