<?xml version="1.0" encoding="UTF-8" standalone="no"?>
<!DOCTYPE svg PUBLIC "-//W3C//DTD SVG 1.1//EN" "http://www.w3.org/Graphics/SVG/1.1/DTD/svg11.dtd">
<svg width="100%" height="100%" viewBox="0 0 659 296" version="1.1" xmlns="http://www.w3.org/2000/svg" xmlns:xlink="http://www.w3.org/1999/xlink" xml:space="preserve" style="fill-rule:evenodd;clip-rule:evenodd;stroke-linejoin:round;stroke-miterlimit:1.41421;">
    <g transform="matrix(1,0,0,1,0,-378)">
        <g id="StaplesFR" transform="matrix(1,0,0,1,0,378)">
            <rect x="0" y="0" width="658.333" height="295.833" style="fill:none;"/>
            <g transform="matrix(4.16667,0,0,4.16667,0,0)">
                <g>
                    <path d="M4.109,14.959L8.24,14.959C9.763,14.959 11.091,14.468 11.091,12.648C11.091,10.855 9.96,10.142 8.314,10.142L4.109,10.142L4.109,14.959ZM4.109,7.511L8.019,7.511C9.371,7.511 10.378,6.896 10.378,5.422C10.378,3.75 9.099,3.406 7.724,3.406L4.109,3.406L4.109,7.511ZM0.25,0.407L8.509,0.407C11.853,0.407 14.115,1.488 14.115,4.758C14.115,6.478 13.253,7.683 11.73,8.421C13.869,9.035 14.951,10.682 14.951,12.87C14.951,16.435 11.927,17.958 8.755,17.958L0.25,17.958L0.25,0.407Z" style="fill:rgb(238,41,36);fill-rule:nonzero;"/>
                    <path d="M30.837,11.321C30.837,16.065 28.035,18.376 23.339,18.376C18.621,18.376 15.867,16.09 15.867,11.321L15.867,0.407L19.726,0.407L19.726,11.321C19.726,13.238 20.218,15.131 23.339,15.131C26.093,15.131 26.978,13.927 26.978,11.321L26.978,0.407L30.837,0.407L30.837,11.321Z" style="fill:rgb(238,41,36);fill-rule:nonzero;"/>
                    <path d="M36.026,8.347L40.252,8.347C41.973,8.347 42.909,7.609 42.909,5.84C42.909,4.144 41.973,3.406 40.252,3.406L36.026,3.406L36.026,8.347ZM32.167,0.407L41.629,0.407C44.776,0.407 46.768,2.595 46.768,5.249C46.768,7.314 45.932,8.863 43.991,9.649L43.991,9.699C45.883,10.19 46.424,12.034 46.545,13.804C46.62,14.91 46.596,16.975 47.284,17.958L43.424,17.958C42.958,16.852 43.006,15.156 42.809,13.755C42.54,11.911 41.827,11.1 39.885,11.1L36.026,11.1L36.026,17.958L32.167,17.958L32.167,0.407Z" style="fill:rgb(238,41,36);fill-rule:nonzero;"/>
                    <path d="M47.949,0.407L61.076,0.407L61.076,3.651L51.808,3.651L51.808,7.413L60.314,7.413L60.314,10.411L51.808,10.411L51.808,14.714L61.273,14.714L61.273,17.958L47.949,17.958L47.949,0.407Z" style="fill:rgb(238,41,36);fill-rule:nonzero;"/>
                    <path d="M67.675,11.174L72.222,11.174L70.009,4.733L69.96,4.733L67.675,11.174ZM68.043,0.407L72.002,0.407L78.564,17.958L74.558,17.958L73.23,14.05L66.668,14.05L65.291,17.958L61.382,17.958L68.043,0.407Z" style="fill:rgb(238,41,36);fill-rule:nonzero;"/>
                    <path d="M92.839,11.321C92.839,16.065 90.037,18.376 85.343,18.376C80.623,18.376 77.869,16.09 77.869,11.321L77.869,0.407L81.728,0.407L81.728,11.321C81.728,13.238 82.22,15.131 85.343,15.131C88.095,15.131 88.98,13.927 88.98,11.321L88.98,0.407L92.839,0.407L92.839,11.321Z" style="fill:rgb(238,41,36);fill-rule:nonzero;"/>
                    <path d="M0.427,21.855L19.949,21.855L19.949,26.681L6.166,26.681L6.166,32.274L18.816,32.274L18.816,36.735L6.166,36.735L6.166,43.133L20.242,43.133L20.242,47.958L0.427,47.958L0.427,21.855Z" style="fill:rgb(238,41,36);fill-rule:nonzero;"/>
                    <path d="M21.738,21.855L27.441,21.855L38.335,39.366L38.41,39.366L38.41,21.855L43.783,21.855L43.783,47.958L38.043,47.958L27.185,30.482L27.111,30.482L27.111,47.958L21.738,47.958L21.738,21.855Z" style="fill:rgb(238,41,36);fill-rule:nonzero;"/>
                    <path d="M76.023,44.997C74.011,47.592 71.378,48.581 68.857,48.581C60.777,48.581 56.025,42.547 56.025,35.016C56.025,27.266 60.777,21.232 68.857,21.232C74.195,21.232 79.24,24.523 79.861,30.446L74.377,30.446C73.718,27.558 71.562,26.059 68.857,26.059C63.701,26.059 61.763,30.446 61.763,35.016C61.763,39.366 63.701,43.754 68.857,43.754C72.585,43.754 74.744,41.743 75.072,38.124L69.294,38.124L69.294,33.846L80.263,33.846L80.263,47.958L76.607,47.958L76.023,44.997Z" style="fill:rgb(238,41,36);fill-rule:nonzero;"/>
                    <path d="M87.785,33.663L94.072,33.663C96.632,33.663 98.021,32.566 98.021,29.935C98.021,27.411 96.632,26.314 94.072,26.314L87.785,26.314L87.785,33.663ZM82.044,21.855L96.121,21.855C100.801,21.855 103.762,25.108 103.762,29.057C103.762,32.128 102.518,34.431 99.63,35.6L99.63,35.674C102.445,36.405 103.25,39.147 103.432,41.78C103.541,43.424 103.506,46.497 104.529,47.958L98.789,47.958C98.093,46.313 98.168,43.79 97.875,41.706C97.472,38.965 96.412,37.758 93.525,37.758L87.785,37.758L87.785,47.958L82.044,47.958L82.044,21.855Z" style="fill:rgb(238,41,36);fill-rule:nonzero;"/>
                    <path d="M116.777,43.754C121.934,43.754 123.871,39.366 123.871,35.016C123.871,30.446 121.934,26.059 116.777,26.059C111.623,26.059 109.686,30.446 109.686,35.016C109.686,39.366 111.623,43.754 116.777,43.754ZM116.777,21.232C124.857,21.232 129.61,27.266 129.61,35.016C129.61,42.547 124.857,48.581 116.777,48.581C108.697,48.581 103.945,42.547 103.945,35.016C103.945,27.266 108.697,21.232 116.777,21.232Z" style="fill:rgb(238,41,36);fill-rule:nonzero;"/>
                    <path d="M135.535,39.293C135.535,42.766 138.24,44.12 141.311,44.12C143.322,44.12 146.393,43.534 146.393,40.866C146.393,38.051 142.48,37.575 138.643,36.551C134.768,35.528 130.854,34.029 130.854,29.13C130.854,23.792 135.9,21.232 140.617,21.232C146.064,21.232 151.072,23.609 151.072,29.642L145.516,29.642C145.332,26.497 143.104,25.693 140.361,25.693C138.533,25.693 136.412,26.461 136.412,28.654C136.412,30.665 137.654,30.921 144.199,32.604C146.1,33.078 151.949,34.285 151.949,40.208C151.949,44.997 148.184,48.581 141.092,48.581C135.314,48.581 129.904,45.729 129.977,39.293L135.535,39.293Z" style="fill:rgb(238,41,36);fill-rule:nonzero;"/>
                    <path d="M151.268,21.19L151.852,21.19L152.861,23.882L153.875,21.19L154.459,21.19L154.459,24.393L154.055,24.393L154.055,21.729L154.045,21.729L153.045,24.393L152.682,24.393L151.682,21.729L151.672,21.729L151.672,24.393L151.268,24.393L151.268,21.19Z" style="fill:rgb(238,41,36);fill-rule:nonzero;"/>
                    <path d="M157.311,22.154C157.221,21.702 156.857,21.473 156.414,21.473C155.65,21.473 155.328,22.101 155.328,22.77C155.328,23.501 155.65,24.11 156.418,24.11C156.979,24.11 157.301,23.716 157.342,23.187L157.768,23.187C157.688,23.985 157.189,24.47 156.381,24.47C155.387,24.47 154.902,23.733 154.902,22.801C154.902,21.872 155.432,21.114 156.418,21.114C157.086,21.114 157.639,21.473 157.736,22.154L157.311,22.154Z" style="fill:rgb(238,41,36);fill-rule:nonzero;"/>
                </g>
                <g transform="matrix(0.345989,0,0,0.345989,-15.8472,-7.91058)">
                    <path d="M72.665,218.885L72.665,210.335L69.965,210.335L69.965,216.485L52.965,216.485L52.965,200.885L66.065,200.885L66.065,198.485L52.965,198.485L52.965,185.185L69.965,185.185L69.965,191.635L72.665,191.635L72.665,182.785L45.815,182.785L45.815,185.185L50.265,185.185L50.265,216.485L45.815,216.485L45.815,218.885L72.665,218.885Z" style="fill-rule:nonzero;"/>
                    <path d="M83.415,196.185L76.865,196.185L76.865,198.435L80.915,198.435L80.915,216.635L76.865,216.635L76.865,218.885L87.265,218.885L87.265,216.635L83.415,216.635L83.415,203.485C84.665,200.785 88.415,197.935 92.365,197.935C96.265,197.935 97.865,199.485 97.865,204.535L97.865,216.635L93.915,216.635L93.915,218.885L104.315,218.885L104.315,216.635L100.365,216.635L100.365,204.735C100.365,199.485 99.515,195.685 92.365,195.685C89.265,195.685 85.815,197.385 83.515,200.535L83.415,200.535L83.415,196.185Z" style="fill-rule:nonzero;"/>
                    <path d="M130.565,218.885L130.565,216.635L126.115,216.635L126.115,198.435L130.565,198.435L130.565,196.185L126.115,196.185L126.115,188.635C126.115,185.235 127.765,185.035 130.965,185.035L131.865,185.035L131.865,182.785L130.015,182.785C127.615,182.785 123.615,183.335 123.615,188.385L123.615,196.185L119.615,196.185L119.615,198.435L123.615,198.435L123.615,216.635L119.515,216.635L119.515,218.885L130.565,218.885Z" style="fill-rule:nonzero;"/>
                    <path d="M145.015,197.935C150.765,197.935 154.365,202.235 154.365,207.085C154.365,213.335 150.065,217.135 145.015,217.135C139.265,217.135 135.665,212.735 135.665,207.085C135.665,202.385 139.615,197.935 145.015,197.935ZM156.965,198.435L160.815,198.435L160.815,196.185L154.465,196.185L154.465,200.285L154.365,200.285C152.115,197.285 148.515,195.685 145.015,195.685C138.015,195.685 133.165,201.735 133.165,207.185C133.165,214.935 138.865,219.385 145.015,219.385C147.665,219.385 151.515,218.185 154.465,214.885L154.465,218.885L160.815,218.885L160.815,216.635L156.965,216.635L156.965,198.435Z" style="fill-rule:nonzero;"/>
                    <path d="M174.815,218.885L174.815,216.635L170.665,216.635L170.665,196.185L164.115,196.185L164.115,198.435L168.165,198.435L168.165,216.635L164.015,216.635L164.015,218.885L174.815,218.885ZM168.165,191.635L170.665,191.635L170.665,185.735L168.165,185.735L168.165,191.635Z" style="fill-rule:nonzero;"/>
                    <path d="M184.815,196.185L178.265,196.185L178.265,198.435L182.365,198.435L182.365,216.635L178.215,216.635L178.215,218.885L188.915,218.885L188.915,216.635L184.865,216.635L184.865,205.735C184.865,202.535 186.315,197.935 189.965,197.935C192.315,197.935 192.915,198.985 192.915,200.585L195.415,200.585C195.415,197.685 193.615,195.685 190.515,195.685C188.065,195.685 185.915,197.085 184.915,198.885L184.815,198.885L184.815,196.185Z" style="fill-rule:nonzero;"/>
                    <path d="M199.815,206.285C200.365,201.585 204.765,197.935 209.515,197.935C214.465,197.935 219.015,201.285 219.565,206.285L199.815,206.285ZM222.065,208.535C222.065,201.085 217.365,195.685 209.865,195.685C202.865,195.685 197.315,200.785 197.315,207.885C197.315,214.585 202.765,219.385 209.315,219.385C214.115,219.385 219.015,217.035 221.065,212.535L218.265,212.535C216.365,215.385 213.015,217.135 209.615,217.135C204.415,217.135 200.215,213.885 199.815,208.535L222.065,208.535Z" style="fill-rule:nonzero;"/>
                    <path d="M241.115,225.735L237.015,225.735L237.015,227.985L247.715,227.985L247.715,225.735L243.615,225.735L243.615,214.735L243.715,214.735C245.315,216.885 248.715,219.435 252.715,219.385C260.065,219.385 264.815,214.035 264.815,207.535C264.815,201.035 260.065,195.685 252.715,195.685C248.315,195.685 245.215,198.135 243.715,200.335L243.615,200.335L243.615,196.185L237.015,196.185L237.015,198.435L241.115,198.435L241.115,225.735ZM262.315,207.535C262.315,213.185 258.315,217.135 252.865,217.135C247.415,217.135 243.415,213.185 243.415,207.535C243.415,201.885 247.415,197.935 252.865,197.935C258.315,197.935 262.315,201.885 262.315,207.535Z" style="fill-rule:nonzero;"/>
                    <path d="M268.115,218.885L279.115,218.885L279.115,216.635L274.865,216.635L274.865,182.785L268.115,182.785L268.115,185.035L272.365,185.035L272.365,216.635L268.115,216.635L268.115,218.885Z" style="fill-rule:nonzero;"/>
                    <path d="M302.615,218.885L309.015,218.885L309.015,216.635L305.115,216.635L305.115,196.185L298.665,196.185L298.665,198.435L302.615,198.435L302.615,212.185C299.815,214.735 297.165,217.135 293.315,217.135C290.215,217.135 288.615,215.285 288.615,212.335L288.615,196.185L282.115,196.185L282.115,198.435L286.115,198.435L286.115,212.985C286.115,217.035 288.965,219.385 292.865,219.385C296.965,219.385 299.915,217.485 302.615,214.585L302.615,218.885Z" style="fill-rule:nonzero;"/>
                    <path d="M313.215,210.935L313.215,218.885L315.465,218.885L315.465,216.335C317.415,218.185 320.315,219.385 323.115,219.385C328.365,219.385 331.915,216.035 331.865,212.935C331.815,202.985 315.465,208.485 315.465,201.435C315.465,198.535 318.665,197.935 321.165,197.935C324.665,197.935 327.765,199.635 327.915,203.085L330.065,203.085L330.065,196.185L327.815,196.185L327.815,197.935C326.015,196.535 323.565,195.685 321.015,195.685C315.265,195.685 312.965,199.035 312.965,201.785C312.965,210.185 329.365,206.035 329.365,212.885C329.365,213.885 328.365,217.135 323.315,217.135C319.465,217.135 315.465,214.985 315.465,210.935L313.215,210.935Z" style="fill-rule:nonzero;"/>
                </g>
            </g>
        </g>
    </g>
</svg>
